<svg width="30" height="17" viewBox="0 0 30 17" fill="none" xmlns="http://www.w3.org/2000/svg">
<path d="M29.3397 16.3499C28.9167 16.7662 28.3431 17 27.7451 17C27.147 17 26.5735 16.7662 26.1505 16.3499L14.9864 5.35936L3.82223 16.3499C3.39686 16.7544 2.82714 16.9782 2.23579 16.9731C1.64443 16.968 1.07875 16.7345 0.660585 16.3229C0.24242 15.9112 0.00522614 15.3543 8.7738e-05 14.7722C-0.00505257 14.19 0.222279 13.6292 0.633116 13.2104L13.3918 0.650078C13.8148 0.233833 14.3883 0 14.9864 0C15.5844 0 16.158 0.233833 16.5809 0.650078L29.3397 13.2104C29.7625 13.6268 30 14.1914 30 14.7802C30 15.3689 29.7625 15.9336 29.3397 16.3499Z" fill="white"/>
</svg>
