<svg width="30" height="17" viewBox="0 0 30 17" fill="none" xmlns="http://www.w3.org/2000/svg">
<path d="M0.660348 0.650078C1.08329 0.233833 1.65686 1.44847e-07 2.2549 1.9713e-07C2.85295 2.49413e-07 3.42651 0.233834 3.84946 0.650078L15.0136 11.6406L26.1778 0.65008C26.6031 0.245633 27.1729 0.0218377 27.7642 0.026896C28.3556 0.0319563 28.9212 0.265463 29.3394 0.677127C29.7576 1.08879 29.9948 1.64568 29.9999 2.22783C30.0051 2.80999 29.7777 3.37085 29.3669 3.7896L16.6082 16.3499C16.1852 16.7662 15.6117 17 15.0136 17C14.4156 17 13.842 16.7662 13.4191 16.3499L0.660347 3.7896C0.237528 3.37323 1.24065e-06 2.80859 1.29212e-06 2.21984C1.34359e-06 1.63109 0.237528 1.06645 0.660348 0.650078Z" fill="white"/>
</svg>
