<svg width="22" height="23" viewBox="0 0 22 23" fill="none" xmlns="http://www.w3.org/2000/svg">
<path d="M11.9867 0.294306C12.7798 0.291263 13.573 0.299234 14.3659 0.318218L14.5767 0.325826C14.8202 0.334521 15.0604 0.34539 15.3506 0.358433C16.507 0.412778 17.2961 0.595376 17.9884 0.863839C18.7058 1.13991 19.3101 1.5138 19.9144 2.11812C20.4669 2.66114 20.8946 3.31799 21.1675 4.04301C21.436 4.73536 21.6186 5.52553 21.6729 6.68199C21.686 6.9711 21.6969 7.21239 21.7055 7.45586L21.7121 7.66672C21.7314 8.45927 21.7397 9.25206 21.7371 10.0448L21.7382 10.8557V12.2795C21.7408 13.0726 21.7325 13.8658 21.7132 14.6587L21.7066 14.8696C21.6979 15.113 21.6871 15.3532 21.674 15.6434C21.6197 16.7999 21.4349 17.589 21.1675 18.2813C20.8954 19.0071 20.4677 19.6645 19.9144 20.2073C19.3709 20.7598 18.7137 21.1874 17.9884 21.4605C17.2961 21.729 16.507 21.9116 15.3506 21.9659C15.0604 21.979 14.8202 21.9898 14.5767 21.9985L14.3659 22.005C13.573 22.0244 12.7798 22.0327 11.9867 22.03L11.1759 22.0311H9.75317C8.96003 22.0338 8.1669 22.0255 7.374 22.0061L7.16314 21.9996C6.90513 21.9903 6.64717 21.9794 6.38929 21.967C5.23285 21.9127 4.44378 21.7279 3.75035 21.4605C3.02506 21.1881 2.3681 20.7604 1.82549 20.2073C1.27232 19.6642 0.844287 19.0069 0.571237 18.2813C0.302779 17.589 0.120183 16.7999 0.0658396 15.6434C0.053735 15.3855 0.0428662 15.1276 0.0332334 14.8696L0.0277991 14.6587C0.00776104 13.8658 -0.00129724 13.0727 0.000627128 12.2795V10.0448C-0.00240631 9.25206 0.00556497 8.45928 0.0245385 7.66672L0.0321466 7.45586C0.0408416 7.21239 0.0517103 6.9711 0.0647528 6.68199C0.119097 5.52445 0.301692 4.73645 0.57015 4.04301C0.843361 3.31764 1.27223 2.66096 1.82658 2.1192C2.36882 1.5657 3.02536 1.13727 3.75035 0.863839C4.44378 0.595376 5.23176 0.412778 6.38929 0.358433L7.16314 0.325826L7.374 0.320392C8.16653 0.300363 8.9593 0.291305 9.75208 0.293219L11.9867 0.294306ZM10.8694 5.72878C10.1493 5.7186 9.43445 5.85163 8.76626 6.12014C8.09807 6.38865 7.48991 6.78729 6.97712 7.29288C6.46433 7.79848 6.05714 8.40096 5.77921 9.06529C5.50128 9.72963 5.35816 10.4426 5.35816 11.1627C5.35816 11.8828 5.50128 12.5958 5.77921 13.2601C6.05714 13.9245 6.46433 14.5269 6.97712 15.0325C7.48991 15.5381 8.09807 15.9368 8.76626 16.2053C9.43445 16.4738 10.1493 16.6068 10.8694 16.5966C12.3107 16.5966 13.6929 16.0241 14.7121 15.0049C15.7312 13.9858 16.3038 12.6035 16.3038 11.1622C16.3038 9.72086 15.7312 8.33858 14.7121 7.31942C13.6929 6.30025 12.3107 5.72878 10.8694 5.72878ZM10.8694 7.90257C11.3025 7.89459 11.7329 7.973 12.1354 8.13322C12.5379 8.29344 12.9044 8.53226 13.2135 8.83572C13.5227 9.13918 13.7683 9.50121 13.936 9.90066C14.1036 10.3001 14.19 10.729 14.1901 11.1622C14.1902 11.5954 14.1039 12.0243 13.9364 12.4238C13.7688 12.8233 13.5234 13.1854 13.2143 13.4889C12.9053 13.7925 12.5388 14.0314 12.1364 14.1918C11.734 14.3521 11.3036 14.4307 10.8705 14.4229C10.0057 14.4229 9.17635 14.0793 8.56487 13.4678C7.95338 12.8563 7.60985 12.027 7.60985 11.1622C7.60985 10.2974 7.95338 9.46801 8.56487 8.85652C9.17635 8.24502 10.0057 7.90149 10.8705 7.90149L10.8694 7.90257ZM16.5755 4.09844C16.2249 4.11247 15.8933 4.26164 15.6501 4.51469C15.407 4.76774 15.2712 5.10505 15.2712 5.45597C15.2712 5.80689 15.407 6.1442 15.6501 6.39725C15.8933 6.65031 16.2249 6.79947 16.5755 6.8135C16.9358 6.8135 17.2814 6.67036 17.5362 6.41557C17.791 6.16078 17.9341 5.81521 17.9341 5.45488C17.9341 5.09456 17.791 4.74899 17.5362 4.4942C17.2814 4.23941 16.9358 4.09627 16.5755 4.09627V4.09844Z" fill="white"/>
</svg>
