<svg width="17" height="17" viewBox="0 0 17 17" fill="none" xmlns="http://www.w3.org/2000/svg">
<path d="M9.27108 0.00103434C9.88452 -0.00131968 10.498 0.00484578 11.1112 0.0195288L11.2743 0.0254134C11.4626 0.0321386 11.6484 0.0405452 11.8729 0.0506331C12.7673 0.0926658 13.3776 0.233896 13.9131 0.441538C14.4679 0.655065 14.9353 0.94425 15.4027 1.41165C15.8301 1.83165 16.1608 2.33969 16.372 2.90046C16.5796 3.43595 16.7208 4.04711 16.7629 4.94157C16.773 5.16518 16.7814 5.35181 16.7881 5.54012L16.7931 5.7032C16.8081 6.3162 16.8145 6.92938 16.8125 7.54256L16.8133 8.16969V9.27095C16.8154 9.88441 16.8089 10.4979 16.794 11.1111L16.7889 11.2742C16.7822 11.4625 16.7738 11.6483 16.7637 11.8728C16.7217 12.7672 16.5788 13.3776 16.372 13.913C16.1615 14.4744 15.8307 14.9829 15.4027 15.4027C14.9824 15.83 14.4741 16.1608 13.9131 16.372C13.3776 16.5796 12.7673 16.7208 11.8729 16.7629C11.6484 16.773 11.4626 16.7814 11.2743 16.7881L11.1112 16.7931C10.498 16.8081 9.88453 16.8145 9.27108 16.8125L8.64396 16.8133H7.54356C6.93011 16.8154 6.31667 16.8089 5.7034 16.794L5.54031 16.7889C5.34075 16.7817 5.14124 16.7733 4.94177 16.7637C4.04733 16.7217 3.43703 16.5788 2.9007 16.372C2.33972 16.1613 1.8316 15.8304 1.41192 15.4027C0.984074 14.9826 0.653011 14.4742 0.441822 13.913C0.234183 13.3776 0.0929556 12.7672 0.0509235 11.8728C0.0415612 11.6733 0.0331547 11.4738 0.0257043 11.2742L0.0215012 11.1111C0.00600275 10.4979 -0.00100335 9.88441 0.000485051 9.27095V7.54256C-0.00186115 6.92938 0.00430421 6.31621 0.0189792 5.7032L0.0248637 5.54012C0.0315888 5.35181 0.0399952 5.16518 0.0500829 4.94157C0.092115 4.04627 0.233343 3.43679 0.440981 2.90046C0.652295 2.33942 0.984005 1.83152 1.41276 1.4125C1.83215 0.984393 2.33996 0.653024 2.9007 0.441538C3.43703 0.233896 4.04649 0.0926658 4.94177 0.0506331L5.54031 0.0254134L5.7034 0.0212102C6.31638 0.0057193 6.92954 -0.00128692 7.54272 0.000193744L9.27108 0.00103434ZM8.4069 4.20431C7.84998 4.19644 7.29705 4.29933 6.78024 4.50701C6.26343 4.71469 5.79305 5.02301 5.39643 5.41406C4.99982 5.80512 4.68488 6.2711 4.46991 6.78493C4.25495 7.29876 4.14425 7.85019 4.14425 8.40717C4.14425 8.96416 4.25495 9.51559 4.46991 10.0294C4.68488 10.5432 4.99982 11.0092 5.39643 11.4003C5.79305 11.7913 6.26343 12.0997 6.78024 12.3073C7.29705 12.515 7.84998 12.6179 8.4069 12.61C9.52166 12.61 10.5908 12.1672 11.379 11.3789C12.1673 10.5907 12.6101 9.52153 12.6101 8.40675C12.6101 7.29197 12.1673 6.22285 11.379 5.43459C10.5908 4.64632 9.52166 4.20431 8.4069 4.20431ZM8.4069 5.88563C8.7419 5.87945 9.07477 5.9401 9.38607 6.06402C9.69738 6.18794 9.98086 6.37265 10.22 6.60737C10.4591 6.84208 10.649 7.12209 10.7787 7.43104C10.9084 7.73999 10.9752 8.07168 10.9753 8.40674C10.9753 8.74181 10.9086 9.07353 10.779 9.38252C10.6495 9.69151 10.4596 9.97158 10.2206 10.2064C9.98154 10.4412 9.69811 10.626 9.38686 10.75C9.0756 10.874 8.74274 10.9348 8.40774 10.9287C7.73888 10.9287 7.09742 10.663 6.62447 10.1901C6.15152 9.71709 5.88582 9.07562 5.88582 8.40675C5.88582 7.73789 6.15152 7.09641 6.62447 6.62345C7.09742 6.15049 7.73888 5.88478 8.40774 5.88478L8.4069 5.88563ZM12.8203 2.94333C12.5491 2.95418 12.2926 3.06955 12.1045 3.26528C11.9165 3.461 11.8115 3.72189 11.8115 3.99331C11.8115 4.26473 11.9165 4.52562 12.1045 4.72134C12.2926 4.91706 12.5491 5.03243 12.8203 5.04329C13.099 5.04329 13.3662 4.93258 13.5633 4.73551C13.7604 4.53844 13.8711 4.27116 13.8711 3.99247C13.8711 3.71377 13.7604 3.44649 13.5633 3.24943C13.3662 3.05236 13.099 2.94165 12.8203 2.94165V2.94333Z" fill="#003C63"/>
</svg>
