<svg width="22" height="16" viewBox="0 0 22 16" fill="none" xmlns="http://www.w3.org/2000/svg">
<path d="M21.0718 2.3677C20.8243 1.43572 20.095 0.701722 19.1691 0.45263C17.4907 0 10.7608 0 10.7608 0C10.7608 0 4.03083 0 2.35244 0.45263C1.4265 0.701761 0.697229 1.43572 0.449713 2.3677C0 4.05696 0 7.58145 0 7.58145C0 7.58145 0 11.1059 0.449713 12.7952C0.697229 13.7272 1.4265 14.4306 2.35244 14.6797C4.03083 15.1323 10.7608 15.1323 10.7608 15.1323C10.7608 15.1323 17.4907 15.1323 19.1691 14.6797C20.095 14.4306 20.8243 13.7272 21.0718 12.7952C21.5215 11.1059 21.5215 7.58145 21.5215 7.58145C21.5215 7.58145 21.5215 4.05696 21.0718 2.3677ZM8.55968 10.7814V4.38148L14.1846 7.58153L8.55968 10.7814Z" fill="#003C63"/>
</svg>
