<svg width="29" height="21" viewBox="0 0 29 21" fill="none" xmlns="http://www.w3.org/2000/svg">
<path d="M27.9402 3.64704C27.6202 2.44207 26.6773 1.49308 25.4801 1.17103C23.3102 0.585815 14.6089 0.585815 14.6089 0.585815C14.6089 0.585815 5.90768 0.585815 3.73767 1.17103C2.5405 1.49313 1.59762 2.44207 1.27761 3.64704C0.696167 5.83111 0.696167 10.388 0.696167 10.388C0.696167 10.388 0.696167 14.9448 1.27761 17.1289C1.59762 18.3339 2.5405 19.2433 3.73767 19.5654C5.90768 20.1506 14.6089 20.1506 14.6089 20.1506C14.6089 20.1506 23.3101 20.1506 25.4801 19.5654C26.6773 19.2433 27.6202 18.3339 27.9402 17.1289C28.5216 14.9448 28.5216 10.388 28.5216 10.388C28.5216 10.388 28.5216 5.83111 27.9402 3.64704ZM11.7631 14.5253V6.25069L19.0356 10.3881L11.7631 14.5253Z" fill="white"/>
</svg>
